<svg xmlns="http://www.w3.org/2000/svg" viewBox="0 0 72 72"><circle fill="#FFF" cx="36" cy="36" r="27.2" opacity=".2"/><path fill="#FFF" d="M36 2C17.2 2 2 17.2 2 36s15.2 34 34 34 34-15.2 34-34S54.8 2 36 2zm0 47.6c-7.5 0-13.6-6.1-13.6-13.6S28.5 22.4 36 22.4 49.6 28.5 49.6 36 43.5 49.6 36 49.6z" opacity=".2"/><path fill="#FFF" d="M36 15.6c-11.3 0-20.4 9.1-20.4 20.4 0 11.3 9.1 20.4 20.4 20.4 11.3 0 20.4-9.1 20.4-20.4 0-11.3-9.1-20.4-20.4-20.4zm0 29.2c-4.9 0-8.8-4-8.8-8.8s4-8.8 8.8-8.8 8.8 4 8.8 8.8-3.9 8.8-8.8 8.8z" opacity=".2"/></svg>